<svg version="1.1" id="Layer_1" xmlns="http://www.w3.org/2000/svg" xmlns:xlink="http://www.w3.org/1999/xlink" x="0px" y="0px"
	 width="100%" viewBox="0 0 300 308" enable-background="new 0 0 300 308" xml:space="preserve">
<path fill="#212529" opacity="1.000000" stroke="none"
	d="
M147.000000,309.000000
	C98.369560,309.000000 49.739128,309.000000 1.054346,309.000000
	C1.054346,206.446014 1.054346,103.892006 1.054346,1.000000
	C45.353657,1.000000 89.708168,1.000000 134.531342,1.443490
	C135.996918,15.121989 137.115189,28.349365 137.948303,41.594677
	C138.507828,50.490585 138.641678,59.412792 139.005417,68.321617
	C139.484726,80.061180 146.441376,85.255173 156.486145,80.203857
	C161.624878,77.619675 167.038086,75.583298 172.315659,73.272865
	C200.037598,61.136696 227.764420,49.011490 255.454010,36.801891
	C257.106689,36.073151 258.450989,34.645130 260.098236,33.424362
	C259.151611,32.751007 258.850342,32.367207 258.641327,32.412174
	C243.104019,35.754887 227.701950,40.110123 211.998657,42.162968
	C201.448486,43.542149 190.087143,43.314384 179.767960,40.901142
	C158.549973,35.939117 147.995361,18.455391 138.000000,1.000000
	C192.225082,1.000000 246.450180,1.000000 301.000000,1.000000
	C301.000000,19.686308 301.000000,38.374496 300.572937,57.531342
	C292.197510,59.976788 284.244843,61.936432 276.301483,63.933258
	C237.804382,73.610786 199.319168,83.335800 160.809174,92.961685
	C147.538849,96.278709 142.130951,105.741341 145.523987,119.135040
	C156.456055,162.288513 167.186035,205.493164 178.033936,248.668030
	C178.929611,252.232864 180.126770,255.721939 181.183838,259.246216
	C181.676804,259.202362 182.169785,259.158508 182.662750,259.114655
	C183.108429,257.493530 183.823868,255.893967 183.955246,254.247772
	C184.712845,244.754684 185.304993,235.248535 186.004517,225.750595
	C187.317795,207.919617 188.455521,190.072021 190.076996,172.268753
	C191.087158,161.177582 193.742111,150.396759 198.357269,140.163834
	C205.999100,123.220009 219.236893,111.253532 234.119675,101.117889
	C246.730957,92.529228 259.996765,84.889000 273.093689,77.030350
	C282.290741,71.511795 291.690674,66.331406 301.000000,61.000000
	C301.000000,143.575958 301.000000,226.151917 301.000000,309.000000
	C250.979431,309.000000 200.958374,309.000000 150.332886,308.595093
	C149.487381,307.614258 149.081116,307.052673 149.029602,306.460236
	C147.994400,294.555908 147.267029,282.617767 145.921509,270.749512
	C144.605164,259.138336 142.473083,247.621384 141.053970,236.019669
	C139.488876,223.224411 138.349075,210.377472 136.985016,197.557190
	C135.344864,182.142136 133.632523,166.734726 132.011276,151.317719
	C130.953232,141.256302 129.909683,131.191711 129.028854,121.113770
	C128.193192,111.552567 117.913170,105.566513 109.431328,108.905914
	C101.390175,112.071823 93.246475,114.976692 85.155701,118.017197
	C67.489212,124.656258 49.813641,131.272003 32.197754,138.042908
	C31.098917,138.465256 30.483841,140.146194 29.364164,141.606033
	C41.301266,142.833786 51.927521,143.494797 62.400269,145.135590
	C71.365341,146.540207 80.190331,149.945847 85.090843,157.905670
	C92.395416,169.770401 99.290627,182.044891 104.804787,194.816513
	C112.727875,213.167587 119.427322,232.058243 126.325294,250.837509
	C133.419357,270.150604 140.124603,289.606567 147.000000,309.000000
M12.509289,111.993828
	C9.699232,113.676865 6.889176,115.359901 4.079119,117.042938
	C5.051276,117.999702 5.664723,118.108101 6.226530,117.983551
	C15.795745,115.862236 25.427856,113.978661 34.908817,111.514473
	C56.792122,105.826828 78.598770,99.844543 100.443825,94.009140
	C103.392715,93.221413 106.407265,92.677452 109.351021,91.872826
	C119.941322,88.978119 124.050919,82.036659 120.694206,71.389519
	C114.342896,51.243835 107.591629,31.223951 100.927567,11.178057
	C100.618057,10.247025 99.540337,9.571380 99.462181,9.485122
	C97.289825,21.024683 95.923889,32.687996 92.770683,43.846241
	C89.308098,56.099266 83.078262,67.403267 72.887451,75.450752
	C54.505680,89.966476 33.750751,100.711075 12.509289,111.993828
z"/>
<path fill="#FFFFFF" opacity="1.000000" stroke="none"
	d="
M301.000000,60.625000
	C291.690674,66.331406 282.290741,71.511795 273.093689,77.030350
	C259.996765,84.889000 246.730957,92.529228 234.119675,101.117889
	C219.236893,111.253532 205.999100,123.220009 198.357269,140.163834
	C193.742111,150.396759 191.087158,161.177582 190.076996,172.268753
	C188.455521,190.072021 187.317795,207.919617 186.004517,225.750595
	C185.304993,235.248535 184.712845,244.754684 183.955246,254.247772
	C183.823868,255.893967 183.108429,257.493530 182.662750,259.114655
	C182.169785,259.158508 181.676804,259.202362 181.183838,259.246216
	C180.126770,255.721939 178.929611,252.232864 178.033936,248.668030
	C167.186035,205.493164 156.456055,162.288513 145.523987,119.135040
	C142.130951,105.741341 147.538849,96.278709 160.809174,92.961685
	C199.319168,83.335800 237.804382,73.610786 276.301483,63.933258
	C284.244843,61.936432 292.197510,59.976788 300.572937,58.000000
	C301.000000,58.750000 301.000000,59.500000 301.000000,60.625000
z"/>
<path fill="#FFFFFF" opacity="1.000000" stroke="none"
	d="
M147.375000,309.000000
	C140.124603,289.606567 133.419357,270.150604 126.325294,250.837509
	C119.427322,232.058243 112.727875,213.167587 104.804787,194.816513
	C99.290627,182.044891 92.395416,169.770401 85.090843,157.905670
	C80.190331,149.945847 71.365341,146.540207 62.400269,145.135590
	C51.927521,143.494797 41.301266,142.833786 29.364164,141.606033
	C30.483841,140.146194 31.098917,138.465256 32.197754,138.042908
	C49.813641,131.272003 67.489212,124.656258 85.155701,118.017197
	C93.246475,114.976692 101.390175,112.071823 109.431328,108.905914
	C117.913170,105.566513 128.193192,111.552567 129.028854,121.113770
	C129.909683,131.191711 130.953232,141.256302 132.011276,151.317719
	C133.632523,166.734726 135.344864,182.142136 136.985016,197.557190
	C138.349075,210.377472 139.488876,223.224411 141.053970,236.019669
	C142.473083,247.621384 144.605164,259.138336 145.921509,270.749512
	C147.267029,282.617767 147.994400,294.555908 149.029602,306.460236
	C149.081116,307.052673 149.487381,307.614258 149.864227,308.595093
	C149.250000,309.000000 148.500000,309.000000 147.375000,309.000000
z"/>
<path fill="#FFFFFF" opacity="1.000000" stroke="none"
	d="
M137.625000,1.000000
	C147.995361,18.455391 158.549973,35.939117 179.767960,40.901142
	C190.087143,43.314384 201.448486,43.542149 211.998657,42.162968
	C227.701950,40.110123 243.104019,35.754887 258.641327,32.412174
	C258.850342,32.367207 259.151611,32.751007 260.098236,33.424362
	C258.450989,34.645130 257.106689,36.073151 255.454010,36.801891
	C227.764420,49.011490 200.037598,61.136696 172.315659,73.272865
	C167.038086,75.583298 161.624878,77.619675 156.486145,80.203857
	C146.441376,85.255173 139.484726,80.061180 139.005417,68.321617
	C138.641678,59.412792 138.507828,50.490585 137.948303,41.594677
	C137.115189,28.349365 135.996918,15.121989 135.000000,1.443490
	C135.750000,1.000000 136.500000,1.000000 137.625000,1.000000
z"/>
<path fill="#FFFFFF" opacity="1.000000" stroke="none"
	d="
M12.774820,111.722229
	C33.750751,100.711075 54.505680,89.966476 72.887451,75.450752
	C83.078262,67.403267 89.308098,56.099266 92.770683,43.846241
	C95.923889,32.687996 97.289825,21.024683 99.462181,9.485122
	C99.540337,9.571380 100.618057,10.247025 100.927567,11.178057
	C107.591629,31.223951 114.342896,51.243835 120.694206,71.389519
	C124.050919,82.036659 119.941322,88.978119 109.351021,91.872826
	C106.407265,92.677452 103.392715,93.221413 100.443825,94.009140
	C78.598770,99.844543 56.792122,105.826828 34.908817,111.514473
	C25.427856,113.978661 15.795745,115.862236 6.226530,117.983551
	C5.664723,118.108101 5.051276,117.999702 4.079119,117.042938
	C6.889176,115.359901 9.699232,113.676865 12.774820,111.722229
z"/>
</svg>
